<svg width="66" height="51" viewBox="0 0 66 51" fill="none" xmlns="http://www.w3.org/2000/svg">
<path d="M58.6 7.32258H7.4C3.86538 7.32258 1 10.1533 1 13.6452V43.6774C1 47.1693 3.86538 50 7.4 50H58.6C62.1346 50 65 47.1693 65 43.6774V13.6452C65 10.1533 62.1346 7.32258 58.6 7.32258Z" fill="#57E9B4"/>
<path d="M7.4 7.32258H58.6C62.1346 7.32258 65 10.1533 65 13.6452V9.69355C65 4.95161 61.8 3.37097 58.6 3.37097H27.4C25.8 3.37097 26.6 1 24.2 1L7.4 1C5 1 1 3.37097 1 7.32258V13.6452C1 10.1533 3.86538 7.32258 7.4 7.32258Z" fill="#5DC191"/>
<path d="M1 43.6774C1 43.6774 1 17.137 1 13.6452M1 43.6774C1 47.1693 3.86538 50 7.4 50H58.6C62.1346 50 65 47.1693 65 43.6774V13.6452M1 43.6774V13.6452M58.6 7.32258C55.0654 7.32258 7.4 7.32258 7.4 7.32258M58.6 7.32258C62.1346 7.32258 65 10.1533 65 13.6452M58.6 7.32258H7.4M65 13.6452C65 13.6452 65 14.4355 65 9.69355M65 13.6452V9.69355M7.4 7.32258C3.86538 7.32258 1 10.1533 1 13.6452M1 13.6452C1 13.6452 1 11.2742 1 7.32258M1 13.6452V7.32258M1 7.32258C1 3.37097 5 1 7.4 1M7.4 1C9.8 1 21.8 1 24.2 1M7.4 1L24.2 1M24.2 1C26.6 1 25.8 3.37097 27.4 3.37097M27.4 3.37097C29 3.37097 55.4 3.37097 58.6 3.37097M27.4 3.37097H58.6M58.6 3.37097C61.8 3.37097 65 4.95161 65 9.69355" stroke="black"/>
</svg>
