<svg width="92" height="92" viewBox="0 0 92 92" fill="none" xmlns="http://www.w3.org/2000/svg">
<path fill-rule="evenodd" clip-rule="evenodd" d="M91 46C91 70.8528 70.8528 91 46 91C21.1472 91 1 70.8528 1 46C1 21.1472 21.1472 1 46 1C70.8528 1 91 21.1472 91 46ZM38.35 65.4856L66.7 49.1177C69.1 47.732 69.1 44.2679 66.7 42.8823L38.35 26.5144C35.95 25.1288 32.95 26.8608 32.95 29.6321V62.3679C32.95 65.1392 35.95 66.8712 38.35 65.4856Z" fill="#B6FFFB"/>
<path fill-rule="evenodd" clip-rule="evenodd" d="M91 46C91 70.8528 70.8528 91 46 91C21.1472 91 1 70.8528 1 46C1 21.1472 21.1472 1 46 1C70.8528 1 91 21.1472 91 46ZM38.35 65.4856L66.7 49.1177C69.1 47.732 69.1 44.2679 66.7 42.8823L38.35 26.5144C35.95 25.1288 32.95 26.8608 32.95 29.6321V62.3679C32.95 65.1392 35.95 66.8712 38.35 65.4856Z" stroke="black" stroke-width="2"/>
<path d="M66.7 49.1177L38.35 65.4856C35.95 66.8712 32.95 65.1392 32.95 62.3679V29.6321C32.95 26.8608 35.95 25.1288 38.35 26.5144L66.7 42.8823C69.1 44.2679 69.1 47.732 66.7 49.1177Z" stroke="black" stroke-width="2"/>
</svg>
